<?xml version="1.0" encoding="utf-8"?>
<!-- Generator: Adobe Illustrator 26.5.0, SVG Export Plug-In . SVG Version: 6.00 Build 0)  -->
<svg version="1.1" id="Ebene_1" xmlns="http://www.w3.org/2000/svg" xmlns:xlink="http://www.w3.org/1999/xlink" x="0px" y="0px"
	 width="467.5px" height="107.9px" viewBox="0 0 467.5 107.9" enable-background="new 0 0 467.5 107.9" xml:space="preserve">
<path id="path14_2_" fill="#18345B" d="M74.6,9.5c-3.1-5-18-4.2-32.6-0.6c2.6,1.4,4.9,3.4,6.8,5.8c8.1,10,6.5,24.8-3.7,32.9
	c-7.2,5.8-16.9,6.6-24.7,2.9c9.6,15,23.7,30,27.7,29.2C55.4,78.3,80.6,19.3,74.6,9.5"/>
<path fill="#F6B80C" d="M43.8,18.4c-6.1-7.2-16.9-8.2-24.1-2.2S11.5,33,17.5,40.3c6.1,7.2,16.9,8.2,24.1,2.2S49.7,25.6,43.8,18.4z
	 M40.5,33c-3.2,2.7-8.1,2.2-10.7-1c-2.7-3.2-2.2-8.1,1-10.7c3.2-2.7,8.1-2.2,10.7,1C44.2,25.4,43.8,30.2,40.5,33z"/>
<g>
	<path fill="#F6B80C" d="M128.2,53.4c0,2.6-0.5,5-1.5,7c-1,2-2.3,3.7-4,5c-1.7,1.3-3.7,2.3-5.9,3c-2.3,0.7-4.7,1-7.2,1
		c-1.7,0-3.4-0.1-4.8-0.4c-1.5-0.3-2.8-0.6-4-1c-1.1-0.4-2.1-0.8-2.9-1.3c-0.8-0.4-1.3-0.8-1.7-1.2c-0.3-0.3-0.6-0.8-0.7-1.5
		c-0.1-0.6-0.2-1.6-0.2-2.7c0-0.8,0-1.5,0.1-2c0.1-0.5,0.1-1,0.3-1.3c0.1-0.3,0.3-0.6,0.5-0.7c0.2-0.1,0.4-0.2,0.7-0.2
		c0.4,0,0.9,0.2,1.5,0.6c0.7,0.4,1.5,0.9,2.5,1.4c1,0.5,2.3,1,3.7,1.4c1.4,0.4,3.1,0.6,5,0.6c1.2,0,2.4-0.1,3.3-0.4
		c1-0.3,1.8-0.7,2.5-1.3c0.7-0.5,1.2-1.2,1.6-2c0.4-0.8,0.5-1.7,0.5-2.7c0-1.1-0.3-2.1-0.9-2.9c-0.6-0.8-1.4-1.5-2.4-2.2
		c-1-0.6-2.1-1.2-3.4-1.8c-1.3-0.6-2.6-1.1-3.9-1.8c-1.3-0.6-2.7-1.3-3.9-2.1c-1.3-0.8-2.4-1.7-3.4-2.8c-1-1.1-1.8-2.4-2.4-3.9
		c-0.6-1.5-0.9-3.3-0.9-5.4c0-2.4,0.4-4.5,1.3-6.4c0.9-1.8,2.1-3.3,3.6-4.6c1.5-1.2,3.3-2.1,5.4-2.7c2.1-0.6,4.2-0.9,6.6-0.9
		c1.2,0,2.4,0.1,3.6,0.3c1.2,0.2,2.3,0.4,3.3,0.7c1,0.3,2,0.7,2.8,1.1c0.8,0.4,1.3,0.7,1.6,1c0.3,0.3,0.4,0.5,0.5,0.7
		c0.1,0.2,0.2,0.4,0.2,0.7c0.1,0.3,0.1,0.7,0.1,1.1c0,0.5,0,1,0,1.7c0,0.8,0,1.4-0.1,1.9c0,0.5-0.1,0.9-0.2,1.3
		c-0.1,0.3-0.2,0.6-0.4,0.7c-0.2,0.2-0.4,0.2-0.7,0.2c-0.3,0-0.7-0.2-1.4-0.5c-0.6-0.4-1.4-0.8-2.3-1.2s-2-0.8-3.2-1.2
		c-1.2-0.4-2.5-0.5-3.9-0.5c-1.1,0-2.1,0.1-2.9,0.4c-0.8,0.3-1.5,0.6-2.1,1.1c-0.6,0.5-1,1.1-1.2,1.7c-0.3,0.7-0.4,1.4-0.4,2.1
		c0,1.1,0.3,2.1,0.9,2.9c0.6,0.8,1.4,1.5,2.5,2.2c1,0.6,2.2,1.2,3.5,1.8c1.3,0.6,2.6,1.1,4,1.8c1.3,0.6,2.7,1.3,4,2.1
		c1.3,0.8,2.5,1.7,3.5,2.8c1,1.1,1.8,2.4,2.5,3.9C127.9,49.6,128.2,51.4,128.2,53.4z"/>
	<path fill="#F6B80C" d="M189.1,67.2c0,0.3-0.1,0.5-0.2,0.7c-0.2,0.2-0.4,0.4-0.8,0.5c-0.4,0.1-0.9,0.2-1.5,0.3
		c-0.6,0.1-1.4,0.1-2.4,0.1c-1,0-1.8,0-2.4-0.1c-0.6-0.1-1.1-0.2-1.5-0.3c-0.4-0.1-0.6-0.3-0.8-0.5c-0.1-0.2-0.2-0.4-0.2-0.7V46.6
		c0-1.2-0.1-2.2-0.3-3.2c-0.2-1-0.6-1.8-1-2.5c-0.5-0.7-1-1.2-1.7-1.6c-0.7-0.4-1.5-0.6-2.5-0.6c-1.2,0-2.3,0.5-3.5,1.4
		c-1.2,0.9-2.5,2.2-3.9,4v23.1c0,0.3-0.1,0.5-0.2,0.7c-0.2,0.2-0.4,0.4-0.8,0.5c-0.4,0.1-0.9,0.2-1.5,0.3c-0.6,0.1-1.4,0.1-2.3,0.1
		c-1,0-1.8,0-2.4-0.1c-0.6-0.1-1.1-0.2-1.5-0.3c-0.4-0.1-0.6-0.3-0.8-0.5c-0.2-0.2-0.2-0.4-0.2-0.7V46.6c0-1.2-0.1-2.2-0.3-3.2
		c-0.2-1-0.6-1.8-1-2.5c-0.4-0.7-1-1.2-1.7-1.6c-0.7-0.4-1.5-0.6-2.5-0.6c-1.2,0-2.4,0.5-3.6,1.4c-1.2,0.9-2.5,2.2-3.9,4v23.1
		c0,0.3-0.1,0.5-0.2,0.7c-0.2,0.2-0.4,0.4-0.8,0.5c-0.4,0.1-0.9,0.2-1.5,0.3c-0.6,0.1-1.4,0.1-2.4,0.1c-1,0-1.8,0-2.4-0.1
		c-0.6-0.1-1.1-0.2-1.5-0.3c-0.4-0.1-0.6-0.3-0.8-0.5c-0.2-0.2-0.2-0.4-0.2-0.7V32.5c0-0.3,0.1-0.5,0.2-0.7c0.1-0.2,0.4-0.4,0.7-0.5
		c0.3-0.1,0.8-0.2,1.3-0.3c0.5-0.1,1.2-0.1,2-0.1c0.8,0,1.5,0,2.1,0.1c0.5,0.1,1,0.2,1.3,0.3c0.3,0.1,0.5,0.3,0.6,0.5
		c0.1,0.2,0.2,0.4,0.2,0.7v4c1.9-2.1,3.8-3.6,5.7-4.7c1.9-1,3.9-1.6,6-1.6c1.4,0,2.7,0.1,3.9,0.4c1.1,0.3,2.2,0.7,3.1,1.3
		c0.9,0.6,1.7,1.2,2.3,2c0.6,0.8,1.2,1.6,1.6,2.6c1-1.1,2.1-2.1,3.1-2.9c1-0.8,2-1.5,3-2c1-0.5,1.9-0.9,2.9-1.1c1-0.2,2-0.4,3-0.4
		c2.3,0,4.3,0.4,5.8,1.2c1.6,0.8,2.9,1.8,3.8,3.2c1,1.3,1.7,2.9,2.1,4.7c0.4,1.8,0.6,3.7,0.6,5.7V67.2z"/>
	<path fill="#F6B80C" d="M226.7,67.3c0,0.4-0.1,0.6-0.4,0.9c-0.3,0.2-0.7,0.4-1.2,0.4c-0.6,0.1-1.4,0.1-2.5,0.1c-1.2,0-2,0-2.5-0.1
		c-0.5-0.1-0.9-0.2-1.1-0.4c-0.2-0.2-0.3-0.5-0.3-0.9v-2.8c-1.4,1.5-3.1,2.7-4.9,3.6c-1.8,0.9-3.9,1.3-6.1,1.3
		c-1.8,0-3.5-0.2-5.1-0.7c-1.5-0.5-2.9-1.2-4-2.1c-1.1-0.9-2-2.1-2.6-3.5c-0.6-1.4-0.9-3-0.9-4.9c0-2,0.4-3.8,1.2-5.3
		c0.8-1.5,2-2.7,3.5-3.7c1.6-1,3.5-1.7,5.9-2.2c2.3-0.5,5-0.7,8.1-0.7h3.4v-2.1c0-1.1-0.1-2-0.3-2.9c-0.2-0.8-0.6-1.5-1.1-2
		c-0.5-0.5-1.2-0.9-2-1.2c-0.8-0.3-1.9-0.4-3.1-0.4c-1.6,0-3.1,0.2-4.4,0.5c-1.3,0.4-2.4,0.8-3.4,1.2c-1,0.4-1.8,0.8-2.5,1.2
		c-0.7,0.4-1.2,0.5-1.6,0.5c-0.3,0-0.5-0.1-0.8-0.3c-0.2-0.2-0.4-0.4-0.5-0.8c-0.1-0.3-0.3-0.8-0.3-1.2c-0.1-0.5-0.1-1-0.1-1.6
		c0-0.8,0.1-1.4,0.2-1.9c0.1-0.5,0.4-0.9,0.7-1.3c0.4-0.4,1-0.8,1.9-1.2c0.9-0.5,2-0.9,3.2-1.3c1.2-0.4,2.5-0.7,4-1
		c1.4-0.2,2.9-0.4,4.5-0.4c2.7,0,5.1,0.3,7,0.8c1.9,0.5,3.5,1.3,4.8,2.5c1.2,1.1,2.2,2.5,2.7,4.3c0.6,1.7,0.9,3.8,0.9,6.2V67.3z
		 M217.1,52.4h-3.7c-1.6,0-2.9,0.1-4,0.4c-1.1,0.2-2,0.6-2.7,1.1c-0.7,0.5-1.2,1-1.5,1.7c-0.3,0.7-0.5,1.4-0.5,2.3
		c0,1.5,0.5,2.6,1.4,3.4c0.9,0.8,2.2,1.2,3.8,1.2c1.4,0,2.6-0.4,3.8-1.1c1.2-0.7,2.3-1.7,3.5-3.1V52.4z"/>
	<path fill="#F6B80C" d="M257.2,35.7c0,0.9,0,1.7-0.1,2.3c-0.1,0.6-0.1,1.1-0.2,1.4c-0.1,0.3-0.2,0.6-0.4,0.7
		c-0.2,0.1-0.4,0.2-0.6,0.2c-0.2,0-0.4,0-0.7-0.1c-0.3-0.1-0.6-0.2-0.9-0.3c-0.3-0.1-0.7-0.2-1.1-0.3c-0.4-0.1-0.8-0.1-1.3-0.1
		c-0.5,0-1.1,0.1-1.6,0.3c-0.5,0.2-1.1,0.6-1.7,1c-0.6,0.5-1.2,1.1-1.8,1.9c-0.6,0.8-1.3,1.7-2,2.9v21.6c0,0.3-0.1,0.5-0.2,0.7
		c-0.2,0.2-0.4,0.4-0.8,0.5c-0.4,0.1-0.9,0.2-1.5,0.3c-0.6,0.1-1.4,0.1-2.4,0.1c-1,0-1.8,0-2.4-0.1c-0.6-0.1-1.1-0.2-1.5-0.3
		c-0.4-0.1-0.6-0.3-0.8-0.5c-0.2-0.2-0.2-0.4-0.2-0.7V32.5c0-0.3,0.1-0.5,0.2-0.7c0.1-0.2,0.4-0.4,0.7-0.5c0.3-0.1,0.8-0.2,1.3-0.3
		c0.5-0.1,1.2-0.1,2-0.1c0.8,0,1.5,0,2.1,0.1c0.5,0.1,1,0.2,1.3,0.3c0.3,0.1,0.5,0.3,0.6,0.5c0.1,0.2,0.2,0.4,0.2,0.7v4.3
		c0.9-1.3,1.8-2.4,2.6-3.2c0.8-0.8,1.6-1.5,2.3-2c0.7-0.5,1.5-0.8,2.2-1c0.7-0.2,1.5-0.3,2.2-0.3c0.3,0,0.7,0,1.1,0.1
		c0.4,0,0.8,0.1,1.2,0.2c0.4,0.1,0.8,0.2,1.1,0.3c0.3,0.1,0.5,0.2,0.7,0.4c0.1,0.1,0.2,0.3,0.3,0.4c0.1,0.2,0.1,0.4,0.2,0.6
		c0.1,0.3,0.1,0.7,0.1,1.2C257.2,34,257.2,34.8,257.2,35.7z"/>
	<path fill="#F6B80C" d="M285.8,63.8c0,1.1-0.1,2-0.2,2.6c-0.1,0.6-0.3,1-0.6,1.3c-0.2,0.2-0.6,0.5-1,0.7c-0.5,0.2-1,0.4-1.6,0.5
		c-0.6,0.1-1.3,0.3-2,0.3c-0.7,0.1-1.4,0.1-2.2,0.1c-1.9,0-3.6-0.2-5.1-0.7c-1.4-0.5-2.6-1.3-3.5-2.3c-0.9-1-1.6-2.3-2.1-3.9
		c-0.4-1.6-0.7-3.4-0.7-5.5V39.1h-4.2c-0.5,0-0.9-0.3-1.1-0.9c-0.3-0.6-0.4-1.6-0.4-3.1c0-0.8,0-1.4,0.1-1.9
		c0.1-0.5,0.2-0.9,0.3-1.2c0.1-0.3,0.3-0.5,0.5-0.6c0.2-0.1,0.4-0.2,0.7-0.2h4.1v-7.7c0-0.3,0.1-0.5,0.2-0.7
		c0.1-0.2,0.4-0.4,0.8-0.5c0.4-0.1,0.9-0.2,1.5-0.3c0.6-0.1,1.4-0.1,2.4-0.1c1,0,1.8,0,2.4,0.1c0.6,0.1,1.1,0.2,1.5,0.3
		c0.4,0.1,0.6,0.3,0.8,0.5c0.2,0.2,0.2,0.4,0.2,0.7v7.7h7.6c0.3,0,0.5,0.1,0.7,0.2c0.2,0.1,0.4,0.3,0.5,0.6c0.1,0.3,0.2,0.7,0.3,1.2
		c0.1,0.5,0.1,1.2,0.1,1.9c0,1.4-0.1,2.4-0.4,3.1c-0.3,0.6-0.6,0.9-1.1,0.9h-7.6v16.3c0,1.9,0.3,3.3,0.9,4.3
		c0.6,0.9,1.7,1.4,3.2,1.4c0.5,0,1,0,1.4-0.1c0.4-0.1,0.8-0.2,1.1-0.3c0.3-0.1,0.6-0.2,0.8-0.3c0.2-0.1,0.4-0.1,0.6-0.1
		c0.2,0,0.3,0,0.4,0.1c0.1,0.1,0.3,0.3,0.3,0.5c0.1,0.3,0.1,0.6,0.2,1.1C285.8,62.4,285.8,63,285.8,63.8z"/>
</g>
<path fill="#18345B" d="M350.6,67.1c0,0.3-0.1,0.5-0.2,0.7c-0.1,0.2-0.4,0.4-0.8,0.5c-0.4,0.1-0.9,0.2-1.5,0.3
	c-0.6,0.1-1.4,0.1-2.4,0.1c-0.9,0-1.7,0-2.3-0.1c-0.6-0.1-1.1-0.2-1.5-0.3c-0.4-0.1-0.6-0.3-0.8-0.5c-0.2-0.2-0.2-0.4-0.2-0.7v-41
	h-0.1l-14.6,41c-0.1,0.3-0.3,0.6-0.5,0.8c-0.2,0.2-0.6,0.4-1,0.5c-0.4,0.1-0.9,0.2-1.5,0.3s-1.4,0.1-2.3,0.1c-0.9,0-1.6,0-2.3-0.1
	c-0.6-0.1-1.1-0.2-1.5-0.3c-0.4-0.1-0.7-0.3-1-0.5c-0.2-0.2-0.4-0.5-0.5-0.7l-14.1-41h-0.1v41c0,0.3-0.1,0.5-0.2,0.7
	c-0.1,0.2-0.4,0.4-0.8,0.5c-0.4,0.1-0.9,0.2-1.5,0.3c-0.6,0.1-1.4,0.1-2.4,0.1c-0.9,0-1.7,0-2.3-0.1c-0.6-0.1-1.1-0.2-1.5-0.3
	c-0.4-0.1-0.6-0.3-0.8-0.5c-0.1-0.2-0.2-0.4-0.2-0.7V22.2c0-1.3,0.4-2.3,1.1-3c0.7-0.7,1.6-1.1,2.8-1.1h6.7c1.2,0,2.2,0.1,3.1,0.3
	c0.9,0.2,1.6,0.5,2.2,1c0.6,0.5,1.1,1.1,1.6,1.8c0.4,0.7,0.8,1.7,1.1,2.7l10.9,30h0.2L332.7,24c0.3-1.1,0.7-2,1.1-2.8
	c0.4-0.8,0.9-1.4,1.4-1.8c0.5-0.5,1.2-0.8,1.9-1c0.7-0.2,1.6-0.3,2.5-0.3h6.9c0.7,0,1.3,0.1,1.8,0.3c0.5,0.2,0.9,0.4,1.2,0.8
	c0.3,0.4,0.6,0.8,0.7,1.3c0.2,0.5,0.3,1.1,0.3,1.7V67.1z"/>
<path fill="#18345B" d="M389,67.3c0,0.4-0.1,0.6-0.4,0.9c-0.3,0.2-0.7,0.4-1.2,0.4c-0.6,0.1-1.4,0.1-2.5,0.1c-1.2,0-2,0-2.5-0.1
	c-0.5-0.1-0.9-0.2-1.1-0.4c-0.2-0.2-0.3-0.5-0.3-0.9v-2.8c-1.4,1.5-3.1,2.7-4.9,3.6c-1.8,0.9-3.9,1.3-6.1,1.3
	c-1.8,0-3.5-0.2-5.1-0.7c-1.5-0.5-2.9-1.2-4-2.1c-1.1-0.9-2-2.1-2.6-3.5c-0.6-1.4-0.9-3-0.9-4.9c0-2,0.4-3.8,1.2-5.3
	c0.8-1.5,2-2.7,3.5-3.7c1.6-1,3.5-1.7,5.9-2.2c2.3-0.5,5-0.7,8.1-0.7h3.4v-2.1c0-1.1-0.1-2-0.3-2.9c-0.2-0.8-0.6-1.5-1.1-2
	c-0.5-0.5-1.2-0.9-2-1.2c-0.8-0.3-1.9-0.4-3.1-0.4c-1.6,0-3.1,0.2-4.4,0.5c-1.3,0.4-2.4,0.8-3.4,1.2c-1,0.4-1.8,0.8-2.5,1.2
	c-0.7,0.4-1.2,0.5-1.6,0.5c-0.3,0-0.5-0.1-0.8-0.3c-0.2-0.2-0.4-0.4-0.5-0.8c-0.1-0.3-0.3-0.8-0.3-1.2c-0.1-0.5-0.1-1-0.1-1.6
	c0-0.8,0.1-1.4,0.2-1.9c0.1-0.5,0.4-0.9,0.7-1.3c0.4-0.4,1-0.8,1.9-1.2c0.9-0.5,2-0.9,3.2-1.3c1.2-0.4,2.5-0.7,4-1
	c1.4-0.2,2.9-0.4,4.5-0.4c2.7,0,5.1,0.3,7,0.8c1.9,0.5,3.5,1.3,4.8,2.5c1.2,1.1,2.2,2.5,2.7,4.3c0.6,1.7,0.9,3.8,0.9,6.2V67.3z
	 M379.3,52.4h-3.7c-1.6,0-2.9,0.1-4,0.4c-1.1,0.2-2,0.6-2.7,1.1c-0.7,0.5-1.2,1-1.5,1.7c-0.3,0.7-0.5,1.4-0.5,2.3
	c0,1.5,0.5,2.6,1.4,3.4c0.9,0.8,2.2,1.2,3.8,1.2c1.4,0,2.6-0.4,3.8-1.1c1.2-0.7,2.3-1.7,3.5-3.1V52.4z"/>
<path fill="#18345B" d="M432.1,49.3c0,3.1-0.3,5.9-1,8.3c-0.7,2.5-1.6,4.6-2.9,6.3c-1.3,1.7-2.9,3.1-4.7,4c-1.9,0.9-4.1,1.4-6.5,1.4
	c-1,0-1.9-0.1-2.8-0.3c-0.8-0.2-1.7-0.5-2.5-0.9c-0.8-0.4-1.6-0.9-2.4-1.5c-0.8-0.6-1.6-1.3-2.4-2.1V81c0,0.3-0.1,0.5-0.2,0.7
	c-0.2,0.2-0.4,0.4-0.8,0.5c-0.4,0.1-0.9,0.3-1.5,0.3c-0.6,0.1-1.4,0.1-2.4,0.1c-1,0-1.8,0-2.4-0.1c-0.6-0.1-1.1-0.2-1.5-0.3
	c-0.4-0.1-0.6-0.3-0.8-0.5c-0.2-0.2-0.2-0.4-0.2-0.7V32.5c0-0.3,0.1-0.5,0.2-0.7c0.1-0.2,0.4-0.4,0.7-0.5c0.3-0.1,0.8-0.2,1.3-0.3
	c0.5-0.1,1.2-0.1,2-0.1c0.8,0,1.4,0,2,0.1c0.5,0.1,1,0.2,1.3,0.3c0.3,0.1,0.6,0.3,0.7,0.5c0.1,0.2,0.2,0.4,0.2,0.7v4.1
	c1-1,2-2,3-2.7c1-0.8,2-1.5,3-2c1-0.5,2.1-0.9,3.1-1.2c1.1-0.3,2.2-0.4,3.4-0.4c2.5,0,4.7,0.5,6.5,1.5c1.8,1,3.3,2.4,4.4,4.1
	c1.1,1.7,2,3.8,2.5,6.1C431.8,44.2,432.1,46.7,432.1,49.3z M421.9,50c0-1.5-0.1-2.9-0.3-4.3c-0.2-1.4-0.6-2.6-1.1-3.6
	c-0.5-1.1-1.2-1.9-2.1-2.5c-0.9-0.6-2-1-3.3-1c-0.6,0-1.3,0.1-1.9,0.3c-0.6,0.2-1.3,0.5-1.9,1c-0.7,0.4-1.3,1-2,1.7
	c-0.7,0.7-1.4,1.6-2.2,2.6v11.4c1.4,1.7,2.7,3.1,3.9,4c1.2,0.9,2.5,1.4,3.9,1.4c1.3,0,2.4-0.3,3.3-1c0.9-0.6,1.6-1.5,2.2-2.5
	c0.6-1.1,1-2.2,1.3-3.6C421.8,52.7,421.9,51.3,421.9,50z"/>
<path fill="#18345B" d="M462.4,57.4c0,2-0.4,3.7-1.1,5.2c-0.7,1.5-1.8,2.8-3.1,3.8c-1.3,1-2.9,1.8-4.8,2.3c-1.8,0.5-3.8,0.8-6,0.8
	c-1.3,0-2.5-0.1-3.7-0.3c-1.2-0.2-2.2-0.4-3.2-0.7c-0.9-0.3-1.7-0.6-2.3-0.9c-0.6-0.3-1.1-0.6-1.4-0.9c-0.3-0.3-0.5-0.7-0.7-1.3
	c-0.2-0.6-0.2-1.4-0.2-2.6c0-0.8,0-1.4,0.1-1.8c0.1-0.5,0.1-0.8,0.2-1.1c0.1-0.3,0.2-0.5,0.4-0.5c0.2-0.1,0.4-0.1,0.6-0.1
	c0.3,0,0.7,0.2,1.3,0.5c0.6,0.3,1.3,0.7,2.1,1.1c0.8,0.4,1.8,0.8,2.9,1.1c1.1,0.3,2.4,0.5,3.8,0.5c0.9,0,1.7-0.1,2.4-0.3
	c0.7-0.2,1.3-0.4,1.8-0.8c0.5-0.3,0.9-0.8,1.1-1.3c0.3-0.5,0.4-1.1,0.4-1.8c0-0.8-0.2-1.4-0.7-2c-0.5-0.6-1.1-1-1.9-1.5
	c-0.8-0.4-1.7-0.8-2.7-1.2c-1-0.4-2-0.8-3.1-1.2c-1.1-0.4-2.1-0.9-3.1-1.5c-1-0.6-1.9-1.3-2.7-2.1c-0.8-0.8-1.4-1.8-1.9-3
	c-0.5-1.2-0.7-2.6-0.7-4.2c0-1.7,0.3-3.2,1-4.6c0.6-1.4,1.6-2.6,2.8-3.6c1.2-1,2.7-1.8,4.5-2.3c1.8-0.5,3.7-0.8,5.9-0.8
	c1.1,0,2.1,0.1,3.2,0.2c1,0.2,2,0.4,2.8,0.6c0.8,0.2,1.5,0.5,2.1,0.8c0.6,0.3,1,0.5,1.2,0.7c0.2,0.2,0.4,0.4,0.5,0.6
	c0.1,0.2,0.2,0.4,0.2,0.7c0.1,0.3,0.1,0.6,0.1,1c0,0.4,0.1,0.9,0.1,1.5c0,0.7,0,1.3-0.1,1.7c0,0.4-0.1,0.8-0.2,1.1
	c-0.1,0.3-0.2,0.4-0.4,0.5c-0.2,0.1-0.3,0.1-0.5,0.1c-0.2,0-0.6-0.1-1.1-0.4c-0.5-0.3-1.1-0.6-1.8-0.9c-0.7-0.3-1.6-0.6-2.6-0.9
	c-1-0.3-2.1-0.4-3.3-0.4c-0.9,0-1.6,0.1-2.3,0.3c-0.6,0.2-1.2,0.4-1.6,0.8c-0.4,0.3-0.7,0.7-0.9,1.2c-0.2,0.5-0.3,0.9-0.3,1.5
	c0,0.8,0.2,1.5,0.7,2c0.5,0.5,1.1,1,1.9,1.4c0.8,0.4,1.7,0.8,2.7,1.2c1,0.4,2.1,0.8,3.1,1.2s2.1,0.9,3.1,1.5c1,0.6,1.9,1.3,2.7,2.1
	c0.8,0.8,1.5,1.8,1.9,3C462.1,54.4,462.4,55.8,462.4,57.4z"/>
<g>
	<path fill="#F6B80C" d="M33.6,73.7c-0.8-0.8-1.5-1.6-2.3-2.5c-8,0.5-14.3,1.2-17.1,1.9c-1.8,0.5-3.5,1.1-5.1,1.8l31.6,5.4
		C38.8,78.9,36.5,76.8,33.6,73.7z"/>
	<path fill="#F6B80C" d="M12.7,94.1c9.6,9,17.1,10.9,26.2,7.1c7.6-3.1,18.8-8.3,28-12.8l-32.7-5.6L12.7,94.1z"/>
	<path fill="#F6B80C" d="M51.6,82.3l3.4,0.6l22-11.6c-5.2-0.4-11-0.6-16.9-0.7C56.3,77.7,53.5,80.9,51.6,82.3z"/>
	<path fill="#F6B80C" d="M72.1,85.8c2.8-1.4,5.1-2.7,6.9-3.8c6.3-3.8,13.1-8.1,4.1-10L60.7,83.9L72.1,85.8z"/>
	<path fill="#F6B80C" d="M4.9,77.8c-2.1,2.2-2.4,5.2,0.8,8.9c1.5,1.7,2.9,3.3,4.3,4.8l18.3-9.6L4.9,77.8z"/>
</g>
<g>
	<path fill="#808081" d="M107,86.8c0,1.9-0.4,3.5-1.3,4.7s-2.1,1.8-3.6,1.8c-1.5,0-2.8-0.5-3.7-1.5V98h-2.2V80.3h2l0.1,1.4
		c0.9-1.1,2.1-1.6,3.7-1.6c1.5,0,2.7,0.6,3.6,1.7c0.9,1.2,1.3,2.8,1.3,4.8V86.8z M104.8,86.6c0-1.4-0.3-2.6-0.9-3.4
		c-0.6-0.8-1.5-1.2-2.5-1.2c-1.3,0-2.3,0.6-3,1.8v6.1c0.7,1.2,1.6,1.7,3,1.7c1,0,1.9-0.4,2.5-1.2C104.5,89.5,104.8,88.2,104.8,86.6z
		"/>
	<path fill="#808081" d="M109.7,86.6c0-1.2,0.2-2.4,0.7-3.4c0.5-1,1.2-1.8,2-2.3c0.9-0.5,1.9-0.8,3-0.8c1.7,0,3.1,0.6,4.2,1.8
		s1.6,2.8,1.6,4.8v0.2c0,1.2-0.2,2.4-0.7,3.3c-0.5,1-1.2,1.8-2,2.3c-0.9,0.5-1.9,0.8-3,0.8c-1.7,0-3.1-0.6-4.2-1.8s-1.6-2.8-1.6-4.8
		V86.6z M111.9,86.8c0,1.4,0.3,2.5,1,3.4c0.7,0.9,1.5,1.3,2.6,1.3c1.1,0,2-0.4,2.6-1.3c0.7-0.9,1-2.1,1-3.6c0-1.4-0.3-2.5-1-3.4
		c-0.7-0.9-1.5-1.3-2.6-1.3c-1.1,0-1.9,0.4-2.6,1.3C112.3,84,111.9,85.2,111.9,86.8z"/>
	<path fill="#808081" d="M135.9,90.1l2.5-9.7h2.2l-3.7,12.7H135l-3.1-9.7l-3,9.7h-1.8l-3.7-12.7h2.2l2.5,9.5l3-9.5h1.8L135.9,90.1z"
		/>
	<path fill="#808081" d="M148.6,93.3c-1.7,0-3.1-0.6-4.2-1.7c-1.1-1.1-1.6-2.7-1.6-4.6v-0.4c0-1.3,0.2-2.4,0.7-3.4
		c0.5-1,1.2-1.8,2-2.3c0.9-0.6,1.8-0.8,2.8-0.8c1.7,0,2.9,0.5,3.9,1.6c0.9,1.1,1.4,2.7,1.4,4.7v0.9h-8.6c0,1.3,0.4,2.3,1.1,3
		c0.7,0.8,1.6,1.2,2.7,1.2c0.8,0,1.4-0.2,2-0.5c0.5-0.3,1-0.7,1.4-1.2l1.3,1C152.3,92.5,150.7,93.3,148.6,93.3z M148.3,81.9
		c-0.9,0-1.6,0.3-2.2,1c-0.6,0.6-1,1.5-1.1,2.7h6.4v-0.2c-0.1-1.1-0.4-2-0.9-2.6S149.2,81.9,148.3,81.9z"/>
	<path fill="#808081" d="M162.7,82.3c-0.3-0.1-0.7-0.1-1.1-0.1c-1.4,0-2.4,0.6-2.9,1.8v9h-2.2V80.3h2.1l0,1.5c0.7-1.1,1.7-1.7,3-1.7
		c0.4,0,0.7,0.1,1,0.2V82.3z"/>
	<path fill="#808081" d="M170.3,93.3c-1.7,0-3.1-0.6-4.2-1.7c-1.1-1.1-1.6-2.7-1.6-4.6v-0.4c0-1.3,0.2-2.4,0.7-3.4
		c0.5-1,1.2-1.8,2-2.3c0.9-0.6,1.8-0.8,2.8-0.8c1.7,0,2.9,0.5,3.9,1.6c0.9,1.1,1.4,2.7,1.4,4.7v0.9h-8.6c0,1.3,0.4,2.3,1.1,3
		c0.7,0.8,1.6,1.2,2.7,1.2c0.8,0,1.4-0.2,2-0.5c0.5-0.3,1-0.7,1.4-1.2l1.3,1C174.1,92.5,172.5,93.3,170.3,93.3z M170.1,81.9
		c-0.9,0-1.6,0.3-2.2,1c-0.6,0.6-1,1.5-1.1,2.7h6.4v-0.2c-0.1-1.1-0.4-2-0.9-2.6S171,81.9,170.1,81.9z"/>
	<path fill="#808081" d="M177.8,86.6c0-2,0.5-3.5,1.4-4.7s2.1-1.8,3.6-1.8c1.5,0,2.7,0.5,3.5,1.5V75h2.2v18.1h-2l-0.1-1.4
		c-0.9,1.1-2.1,1.6-3.6,1.6c-1.5,0-2.7-0.6-3.6-1.8s-1.4-2.8-1.4-4.7V86.6z M180,86.8c0,1.4,0.3,2.6,0.9,3.4
		c0.6,0.8,1.4,1.2,2.5,1.2c1.4,0,2.4-0.6,3-1.9v-5.9c-0.7-1.2-1.7-1.8-3-1.8c-1.1,0-1.9,0.4-2.5,1.2C180.3,84,180,85.2,180,86.8z"/>
	<path fill="#808081" d="M209.8,86.8c0,1.9-0.4,3.5-1.3,4.7c-0.9,1.2-2.1,1.8-3.6,1.8c-1.6,0-2.9-0.6-3.7-1.7l-0.1,1.5h-2V75h2.2
		v6.7c0.9-1.1,2.1-1.6,3.6-1.6c1.5,0,2.8,0.6,3.6,1.8c0.9,1.2,1.3,2.8,1.3,4.8V86.8z M207.6,86.6c0-1.5-0.3-2.6-0.9-3.4
		s-1.4-1.2-2.5-1.2c-1.4,0-2.5,0.7-3.1,2v5.5c0.7,1.3,1.7,2,3.1,2c1,0,1.9-0.4,2.4-1.2C207.3,89.4,207.6,88.2,207.6,86.6z"/>
	<path fill="#808081" d="M217.1,89.9l3-9.6h2.3L217.3,95c-0.8,2.1-2.1,3.2-3.8,3.2l-0.4,0l-0.8-0.2v-1.8l0.6,0
		c0.7,0,1.3-0.1,1.7-0.4c0.4-0.3,0.8-0.8,1-1.6l0.5-1.3l-4.5-12.6h2.4L217.1,89.9z"/>
	<path fill="#808081" d="M237,84.5l4.5-8.6h2.6l-5.9,10.8v6.4h-2.3v-6.4l-5.9-10.8h2.6L237,84.5z"/>
	<path fill="#808081" d="M250.9,93.3c-1.7,0-3.1-0.6-4.2-1.7c-1.1-1.1-1.6-2.7-1.6-4.6v-0.4c0-1.3,0.2-2.4,0.7-3.4
		c0.5-1,1.2-1.8,2-2.3c0.9-0.6,1.8-0.8,2.8-0.8c1.7,0,2.9,0.5,3.9,1.6c0.9,1.1,1.4,2.7,1.4,4.7v0.9h-8.6c0,1.3,0.4,2.3,1.1,3
		c0.7,0.8,1.6,1.2,2.7,1.2c0.8,0,1.4-0.2,2-0.5c0.5-0.3,1-0.7,1.4-1.2l1.3,1C254.7,92.5,253.1,93.3,250.9,93.3z M250.7,81.9
		c-0.9,0-1.6,0.3-2.2,1c-0.6,0.6-1,1.5-1.1,2.7h6.4v-0.2c-0.1-1.1-0.4-2-0.9-2.6C252.3,82.2,251.6,81.9,250.7,81.9z"/>
	<path fill="#808081" d="M261.3,93.1h-2.2V75h2.2V93.1z"/>
	<path fill="#808081" d="M267.7,93.1h-2.2V75h2.2V93.1z"/>
	<path fill="#808081" d="M271.1,86.6c0-1.2,0.2-2.4,0.7-3.4c0.5-1,1.2-1.8,2-2.3c0.9-0.5,1.9-0.8,3-0.8c1.7,0,3.1,0.6,4.2,1.8
		s1.6,2.8,1.6,4.8v0.2c0,1.2-0.2,2.4-0.7,3.3c-0.5,1-1.2,1.8-2,2.3c-0.9,0.5-1.9,0.8-3,0.8c-1.7,0-3.1-0.6-4.2-1.8s-1.6-2.8-1.6-4.8
		V86.6z M273.3,86.8c0,1.4,0.3,2.5,1,3.4s1.5,1.3,2.6,1.3c1.1,0,2-0.4,2.6-1.3s1-2.1,1-3.6c0-1.4-0.3-2.5-1-3.4
		c-0.7-0.9-1.5-1.3-2.6-1.3c-1.1,0-1.9,0.4-2.6,1.3S273.3,85.2,273.3,86.8z"/>
	<path fill="#808081" d="M297.3,90.1l2.5-9.7h2.2l-3.7,12.7h-1.8l-3.1-9.7l-3,9.7h-1.8l-3.7-12.7h2.2l2.5,9.5l3-9.5h1.8L297.3,90.1z
		"/>
	<path fill="#808081" d="M307.9,75.9l5.6,14l5.6-14h2.9v17.2h-2.3v-6.7l0.2-7.2l-5.6,13.9h-1.7L307,79.2l0.2,7.2v6.7H305V75.9H307.9
		z"/>
	<path fill="#808081" d="M334.1,93.1c-0.1-0.3-0.2-0.7-0.3-1.3c-1,1.1-2.2,1.6-3.6,1.6c-1.3,0-2.3-0.4-3.1-1.1
		c-0.8-0.7-1.2-1.6-1.2-2.7c0-1.3,0.5-2.4,1.5-3.1s2.4-1.1,4.3-1.1h2.1v-1c0-0.8-0.2-1.4-0.7-1.8c-0.5-0.5-1.1-0.7-2-0.7
		c-0.8,0-1.4,0.2-2,0.6c-0.5,0.4-0.8,0.9-0.8,1.4h-2.2c0-0.6,0.2-1.3,0.7-1.8c0.5-0.6,1.1-1.1,1.8-1.4c0.8-0.3,1.6-0.5,2.6-0.5
		c1.5,0,2.6,0.4,3.5,1.1c0.8,0.7,1.3,1.7,1.3,3v5.9c0,1.2,0.1,2.1,0.4,2.8v0.2H334.1z M330.5,91.4c0.7,0,1.3-0.2,1.9-0.5
		c0.6-0.4,1.1-0.8,1.3-1.4v-2.6h-1.7c-2.7,0-4,0.8-4,2.3c0,0.7,0.2,1.2,0.7,1.6C329.2,91.2,329.8,91.4,330.5,91.4z"/>
	<path fill="#808081" d="M350.7,86.8c0,1.9-0.4,3.5-1.3,4.7c-0.9,1.2-2.1,1.8-3.6,1.8c-1.5,0-2.8-0.5-3.7-1.5V98h-2.2V80.3h2
		l0.1,1.4c0.9-1.1,2.1-1.6,3.7-1.6c1.5,0,2.7,0.6,3.6,1.7c0.9,1.2,1.3,2.8,1.3,4.8V86.8z M348.5,86.6c0-1.4-0.3-2.6-0.9-3.4
		c-0.6-0.8-1.5-1.2-2.5-1.2c-1.3,0-2.3,0.6-3,1.8v6.1c0.7,1.2,1.6,1.7,3,1.7c1,0,1.9-0.4,2.5-1.2C348.2,89.5,348.5,88.2,348.5,86.6z
		"/>
</g>
</svg>
